<svg width="72" height="42" viewBox="0 0 72 42" fill="none" xmlns="http://www.w3.org/2000/svg">
<path d="M6.87073 33.7841V37.6951H8.25028C9.41572 37.6951 10.1014 36.9687 10.1014 35.7328C10.1014 34.4996 9.41301 33.7841 8.25028 33.7841H6.87073ZM7.47784 34.3072H8.19336C9.02001 34.3072 9.48076 34.8167 9.48076 35.7382C9.48076 36.6624 9.02272 37.1693 8.19336 37.1693H7.47784V34.3072ZM16.9941 37.1693H15.1186V35.955H16.8938V35.4509H15.1186V34.3072H16.9941V33.7841H14.5114V37.6951H16.9941V37.1693ZM23.0249 37.6951V34.3072H24.2201V33.7841H21.2198V34.3072H22.4178V37.6951H23.0249ZM30.5572 37.6951H31.1995L29.7875 33.7841H29.1316L27.7195 37.6951H28.351L28.7087 36.638H30.1994L30.5572 37.6951ZM29.446 34.4346H29.4622L30.0449 36.1502H28.8632L29.446 34.4346ZM36.0676 37.6951V33.7841H35.4605V37.6951H36.0676ZM43.047 37.1693H41.2257V33.7841H40.6185V37.6951H43.047V37.1693ZM48.0045 37.6951V33.7841H47.3974V37.6951H48.0045ZM53.1463 37.6951V34.814H53.1707L55.198 37.6951H55.7455V33.7841H55.1546V36.6679H55.133L53.1056 33.7841H52.5554V37.6951H53.1463ZM63.6681 36.0689V35.6705H62.0581V36.161H63.0691V36.2288C63.061 36.8223 62.6219 37.2289 61.9877 37.2289C61.2423 37.2289 60.7789 36.6516 60.7789 35.7165C60.7789 34.7977 61.2288 34.2503 61.9768 34.2503C62.4864 34.2503 62.8685 34.5294 63.0149 35.0146H63.6383C63.5027 34.234 62.8441 33.719 61.9741 33.719C60.8602 33.719 60.1582 34.4888 60.1582 35.722C60.1582 36.9768 60.8629 37.7601 61.9823 37.7601C63.042 37.7601 63.6681 37.1286 63.6681 36.0689Z" fill="white"/>
<rect x="0.435" y="31.5883" width="70.1502" height="9.21374" rx="0.867024" stroke="white" stroke-width="0.87"/>
<path d="M40.9334 22.2433C41.1676 21.7156 41.3123 21.1582 41.3654 20.5883L40.9334 22.2433ZM40.9334 22.2433C40.6913 22.7937 40.3768 23.3103 40.0029 23.7846L40.9334 22.2433ZM34.0315 24.5857L34.0315 24.5856C33.8245 24.5806 33.6226 24.5559 33.4188 24.5051L33.4116 24.5033L33.4116 24.5032C33.1876 24.4433 32.9843 24.3464 32.802 24.227L32.7971 24.2238L32.7972 24.2238C32.6029 24.0928 32.4376 23.9223 32.3122 23.7237C32.1615 23.4857 32.0957 23.2159 32.1007 22.9499C32.1008 22.9483 32.1008 22.9466 32.1008 22.945L32.5334 22.9546C32.5334 22.798 32.5589 22.6413 32.6142 22.4973L34.0315 24.5857ZM34.0315 24.5857H34.0418C34.4131 24.5857 34.7831 24.5336 35.1383 24.4346M34.0315 24.5857L35.1383 24.4346M35.2017 23.3739L35.5225 23.0835L34.1182 21.5149C34.1182 21.5148 34.1181 21.5147 34.118 21.5146L33.26 21.7436C33.4299 21.625 33.6594 21.6504 33.7953 21.8029L35.2017 23.3739ZM35.2017 23.3739L35.5241 23.0853L35.5234 23.0845M35.2017 23.3739C35.3972 23.5898 35.3037 23.9413 35.0233 24.0175M35.5234 23.0845L33.5234 24.0852C33.6934 24.1276 33.8633 24.1488 34.0418 24.153C34.3732 24.153 34.7046 24.1064 35.0233 24.0175M35.5234 23.0845C35.9205 23.5247 35.7478 24.2678 35.1383 24.4346M35.5234 23.0845L35.1383 24.4346M35.0233 24.0175L35.1367 24.435C35.1373 24.4349 35.1378 24.4347 35.1383 24.4346M35.0233 24.0175L35.1396 24.4343C35.1391 24.4344 35.1387 24.4345 35.1383 24.4346M37.8046 25.6374L37.5736 25.3813L37.2725 25.5494C36.7706 25.8295 36.2394 26.0503 35.6822 26.2153L35.6814 26.2155C35.1823 26.3643 34.6665 26.4391 34.1451 26.4431C33.5564 26.447 32.9706 26.3604 32.4078 26.1905L32.407 26.1903C31.8896 26.0352 31.4072 25.795 30.9709 25.4767C30.578 25.1867 30.2534 24.8217 30.0115 24.4C29.7779 23.9887 29.6574 23.5188 29.6647 23.046L29.6647 23.046V23.0393C29.6647 22.6242 29.7365 22.2798 29.8646 21.993C29.9989 21.6957 30.1783 21.4197 30.3958 21.1725C30.6134 20.9332 30.8629 20.7189 31.1332 20.5341C31.421 20.3374 31.7063 20.1601 31.9838 19.9925L32.5088 19.6754L32.034 19.2872C31.8841 19.1646 31.7432 19.0316 31.6147 18.8885L31.6139 18.8875C31.4825 18.742 31.369 18.5855 31.2694 18.413C31.1687 18.2334 31.0892 18.0388 31.0349 17.841C30.9731 17.6087 30.9442 17.3737 30.9478 17.1346L30.9479 17.1346V17.1281C30.9479 16.714 31.0354 16.3614 31.1987 16.0527C31.3681 15.737 31.6059 15.4603 31.894 15.2445C32.2187 15.0079 32.5824 14.8293 32.9652 14.7256L32.9652 14.7256L32.9687 14.7246C33.4142 14.6 33.8806 14.5374 34.3434 14.5374L34.3467 14.5374C34.8701 14.5334 35.392 14.5966 35.8967 14.73C36.3477 14.8531 36.7263 15.0346 37.0348 15.2613C37.3291 15.4806 37.5643 15.7675 37.7258 16.0988C37.8715 16.412 37.9543 16.7447 37.9688 17.087L37.9688 17.087L37.969 17.0912C37.9977 17.6456 37.8289 18.1985 37.4935 18.6477L37.4868 18.6567L37.4806 18.666L37.4773 18.6709C37.3157 18.8907 37.1273 19.0933 36.919 19.2745C36.7906 19.3859 36.6702 19.4862 36.5454 19.5767L36.5454 19.5767L36.5429 19.5785C36.1783 19.8466 36.0941 20.3559 36.354 20.726C36.3719 20.7535 36.3887 20.7733 36.3982 20.7841C36.4049 20.7918 36.4116 20.799 36.4172 20.8047L37.1555 21.6618L37.1555 21.6619L37.1582 21.6649C37.4632 22.0123 37.988 22.0482 38.3375 21.747C38.4429 21.6583 38.5239 21.5436 38.5714 21.4159C38.6073 21.3263 38.6385 21.2416 38.6691 21.1544L38.6733 21.1425L38.6768 21.1303L38.6826 21.1101C38.7908 20.7946 39.0918 20.5814 39.4301 20.5841L39.4326 20.5841L40.9308 20.5874C40.8792 21.0972 40.7476 21.5954 40.5379 22.0677L40.5374 22.069C40.3109 22.5838 40.0163 23.0685 39.6645 23.515C39.4109 23.831 39.4214 24.2787 39.6834 24.5833L39.6834 24.5833L39.685 24.5852L41.0471 26.1509H38.9535C38.5198 26.1509 38.101 25.966 37.8046 25.6374ZM39.4336 20.1514L40.9554 20.1547L38.2694 20.9814C38.4351 20.4817 38.9067 20.1472 39.4336 20.1514ZM33.614 16.651C33.4449 16.8834 33.3575 17.1642 33.3627 17.4503C33.3631 17.5818 33.3803 17.7274 33.4256 17.8694L33.4255 17.8695L33.4296 17.8812C33.4675 17.9891 33.5159 18.0963 33.5704 18.1941L33.5747 18.2019L33.5794 18.2096C33.6321 18.2954 33.6915 18.3846 33.758 18.4712C33.7592 18.4728 33.7608 18.475 33.7629 18.4777C33.7825 18.5041 33.8387 18.5794 33.9142 18.6385C34.0172 18.7192 34.1333 18.7592 34.2547 18.7731C34.378 18.788 34.4896 18.7717 34.5957 18.7279C34.6404 18.7095 34.6782 18.6885 34.7041 18.6735C34.7171 18.666 34.7301 18.6583 34.7408 18.652L34.7414 18.6516L34.7733 18.6327C34.9059 18.5557 35.031 18.4603 35.1414 18.3453C35.2511 18.2353 35.3522 18.1064 35.4312 17.9488L35.4313 17.9488L35.4339 17.9434C35.5211 17.7634 35.5675 17.5655 35.5622 17.3586C35.5609 17.0677 35.4746 16.7907 35.2764 16.5713C35.0631 16.3351 34.7744 16.2381 34.4752 16.2381C34.1473 16.2381 33.8247 16.3547 33.614 16.651Z" stroke="white" stroke-width="0.86537"/>
<path d="M48.4752 0.432685H57.6521L58.0294 0.445152C64.9749 0.674656 70.5316 6.35039 70.5275 13.3213V13.3215C70.5275 20.3051 64.95 25.9931 57.9839 26.2021L57.7081 26.2104H48.471C47.8588 26.2104 47.3655 25.7167 47.3655 25.1102V20.9604C47.3655 20.6757 47.5996 20.4404 47.8889 20.4404H52.1802C52.677 20.4404 53.0845 20.0363 53.0845 19.5377V14.5368C53.0845 14.2521 53.3185 14.0167 53.6078 14.0167H56.3866C56.8833 14.0167 57.2909 13.6127 57.2909 13.114V7.10961C57.2909 6.61096 56.8833 6.20691 56.3866 6.20691H47.8889C47.5996 6.20691 47.3655 5.97156 47.3655 5.68684V1.5371C47.3655 0.927106 47.8622 0.432685 48.4752 0.432685Z" stroke="white" stroke-width="0.86537"/>
<path d="M39.2338 3.89931H39.2338L39.2337 3.89253C39.2335 3.87734 39.2385 3.86729 39.2461 3.85976C39.2539 3.85194 39.2663 3.84504 39.2855 3.84504H44.2269C44.257 3.84504 44.2786 3.86866 44.2786 3.89508V8.81973C44.2786 8.84614 44.257 8.86977 44.2269 8.86977H39.2855C39.2554 8.86977 39.2338 8.84614 39.2338 8.81973V3.89931Z" stroke="white" stroke-width="0.86537"/>
<path d="M48.2246 8.576H52.0019C52.032 8.576 52.0535 8.59962 52.0535 8.62604V12.3904C52.0535 12.4169 52.032 12.4405 52.0019 12.4405H48.2246C48.1945 12.4405 48.1729 12.4169 48.1729 12.3904V8.62604C48.1729 8.59962 48.1945 8.576 48.2246 8.576Z" stroke="white" stroke-width="0.86537"/>
<path d="M42.0681 13.3895H46.3127C46.3428 13.3895 46.3644 13.4131 46.3644 13.4395V17.6739C46.3644 17.7004 46.3428 17.724 46.3127 17.724H42.0681C42.038 17.724 42.0164 17.7004 42.0164 17.6739V13.4395C42.0164 13.4292 42.0206 13.4166 42.0319 13.4052C42.0429 13.3942 42.0555 13.3895 42.0681 13.3895Z" stroke="white" stroke-width="0.86537"/>
<path d="M1.69175 4.04816H2.12443H2.12461H2.12478H2.12496H2.12513H2.12531H2.12548H2.12565H2.12583H2.126H2.12618H2.12635H2.12652H2.1267H2.12687H2.12705H2.12722H2.1274H2.12757H2.12774H2.12792H2.12809H2.12827H2.12844H2.12862H2.12879H2.12896H2.12914H2.12931H2.12949H2.12966H2.12984H2.13001H2.13018H2.13036H2.13053H2.13071H2.13088H2.13105H2.13123H2.1314H2.13158H2.13175H2.13192H2.1321H2.13227H2.13245H2.13262H2.1328H2.13297H2.13314H2.13332H2.13349H2.13367H2.13384H2.13401H2.13419H2.13436H2.13454H2.13471H2.13488H2.13506H2.13523H2.1354H2.13558H2.13575H2.13593H2.1361H2.13627H2.13645H2.13662H2.1368H2.13697H2.13714H2.13732H2.13749H2.13766H2.13784H2.13801H2.13819H2.13836H2.13853H2.13871H2.13888H2.13905H2.13923H2.1394H2.13957H2.13975H2.13992H2.14009H2.14027H2.14044H2.14062H2.14079H2.14096H2.14114H2.14131H2.14148H2.14166H2.14183H2.142H2.14218H2.14235H2.14252H2.1427H2.14287H2.14304H2.14321H2.14339H2.14356H2.14373H2.14391H2.14408H2.14425H2.14443H2.1446H2.14477H2.14495H2.14512H2.14529H2.14546H2.14564H2.14581H2.14598H2.14616H2.14633H2.1465H2.14667H2.14685H2.14702H2.14719H2.14736H2.14754H2.14771H2.14788H2.14805H2.14823H2.1484H2.14857H2.14874H2.14892H2.14909H2.14926H2.14943H2.14961H2.14978H2.14995H2.15012H2.1503H2.15047H2.15064H2.15081H2.15098H2.15116H2.15133H2.1515H2.15167H2.15184H2.15202H2.15219H2.15236H2.15253H2.1527H2.15287H2.15305H2.15322H2.15339H2.15356H2.15373H2.1539H2.15408H2.15425H2.15442H2.15459H2.15476H2.15493H2.1551H2.15528H2.15545H2.15562H2.15579H2.15596H2.15613H2.1563H2.15647H2.15664H2.15682H2.15699H2.15716H2.15733H2.1575H2.15767H2.15784H2.15801H2.15818H2.15835H2.15852H2.15869H2.15886H2.15903H2.1592H2.15938H2.15955H2.15972H2.15989H2.16006H2.16023H2.1604H2.16057H2.16074H2.16091H2.16108H2.16125H2.16142H2.16159H2.16176H2.16193H2.1621H2.16227H2.16244H2.16261H2.16278H2.16295H2.16311H2.16328H2.16345H2.16362H2.16379H2.16396H2.16413H2.1643H2.16447H2.16464H2.16481H2.16498H2.16515H2.16531H2.16548H2.16565H2.16582H2.16599H2.16616H2.16633H2.1665H2.16666H2.16683H2.167H2.16717H2.16734H2.16751H2.16768H2.16784H2.16801H2.16818H2.16835H2.16852H2.16868H2.16885H2.16902H2.16919H2.16936H2.16952H2.16969H2.16986H2.17003H2.17019H2.17036H2.17053H2.1707H2.17086H2.17103H2.1712H2.17137H2.17153H2.1717H2.17187H2.17203H2.1722H2.17237H2.17253H2.1727H2.17287H2.17303H2.1732H2.17337H2.17353H2.1737H2.17387H2.17403H2.1742H2.17437H2.17453H2.1747H2.17486H2.17503H2.1752H2.17536H2.17553H2.17569H2.17586H2.17603H2.17619H2.17636H2.17652H2.17669H2.17685H2.17702H2.17718H2.17735H2.17751H2.17768H2.17784H2.17801H2.17817H2.17834H2.1785H2.17867H2.17883H2.179H2.17916H2.17933H2.17949H2.17966H2.17982H2.17998H2.18015H2.18031H2.18048H2.18064H2.18081H2.18097H2.18113H2.1813H2.18146H2.18162H2.18179H2.18195H2.18211H2.18228H2.18244H2.1826H2.18277H2.18293H2.18309H2.18326H2.18342H2.18358H2.18375H2.18391H2.18407H2.18423H2.1844H2.18456H2.18472H2.18488H2.18505H2.18521H2.18537H2.18553H2.18569H2.18586H2.18602H2.18618H2.18634H2.1865H2.18666H2.18683H2.18699H2.18715H2.18731H2.18747H2.18763H2.18779H2.18795H2.18812H2.18828H2.18844H2.1886H2.18876H2.18892H2.18908H2.18924H2.1894H2.18956H2.18972H2.18988H2.19004H2.1902H2.19036H2.19052H2.19068H2.19084H2.191H2.19116H2.19132H2.19148H2.19164H2.1918H2.19196H2.19212H2.19227H2.19243H2.19259H2.19275H2.19291H2.19307H2.19323H2.19339H2.19354H2.1937H2.19386H2.19402H2.19418H2.19434H2.19449H2.19465H2.19481H2.19497H2.19512H2.19528H2.19544H2.1956H2.19575H2.19591H2.19607H2.19623H2.19638H2.19654H2.1967H2.19685H2.19701H2.19717H2.19732H2.19748H2.19764H2.19779H2.19795H2.1981H2.19826H2.19842H2.19857H2.19873H2.19888H2.19904H2.19919H2.19935H2.19951H2.19966H2.19982H2.19997H2.20013H2.20028H2.20044H2.20059H2.20074H2.2009H2.20105H2.20121H2.20136H2.20152H2.20167H2.20182H2.20198H2.20213H2.20229H2.20244H2.20259H2.20275H2.2029H2.20305H2.20321H2.20336H2.20351H2.20367H2.20382H2.20397H2.20412H2.20428H2.20443H2.20458H2.20473H2.20489H2.20504H2.20519H2.20534H2.2055H2.20565H2.2058H2.20595H2.2061H2.20625H2.2064H2.20656H2.20671H2.20686H2.20701H2.20716H2.20731H2.20746H2.20761H2.20776H2.20791H2.20806H2.20821H2.20836H2.20851H2.20866H2.20881H2.20896H2.20911H2.20926H2.20941H8.09409C9.55109 4.04816 10.7319 5.22288 10.7319 6.67852V6.79285C10.7319 8.08035 9.80105 9.17934 8.52642 9.3919L8.5176 9.39337L8.50874 9.39447L8.47475 9.39871L8.4518 9.40157L8.42868 9.40197L5.22078 9.45701L5.21336 9.45714V9.45708C4.23852 9.45708 3.56835 10.1385 3.56835 11.1204C3.56835 12.063 4.30797 12.8415 5.25533 12.8897L13.8258 12.9574C13.8264 12.9574 13.827 12.9574 13.8276 12.9574C15.2849 12.9584 16.4637 14.138 16.4637 15.592V15.6386C16.4637 16.9769 15.4569 18.1058 14.1211 18.2577L14.0968 18.2605H14.0722H14.0722H14.0722H14.0721H14.0721H14.072H14.072H14.0719H14.0719H14.0718H14.0718H14.0717H14.0717H14.0716H14.0716H14.0715H14.0715H14.0714H14.0714H14.0713H14.0713H14.0712H14.0712H14.0711H14.0711H14.071H14.071H14.0709H14.0709H14.0708H14.0708H14.0707H14.0707H14.0706H14.0706H14.0705H14.0705H14.0704H14.0704H14.0703H14.0703H14.0702H14.0702H14.0701H14.0701H14.07H14.07H14.0699H14.0699H14.0698H14.0698H14.0697H14.0697H14.0696H14.0696H14.0695H14.0695H14.0694H14.0694H14.0693H14.0693H14.0692H14.0692H14.0691H14.0691H14.069H14.069H14.0689H14.0689H14.0688H14.0688H14.0687H14.0687H14.0686H14.0686H14.0685H14.0685H14.0684H14.0684H14.0683H14.0683H14.0682H14.0682H14.0681H14.0681H14.068H14.068H14.0679H14.0679H14.0678H14.0678H14.0677H14.0677H14.0676H14.0676H14.0675H14.0675H14.0674H14.0674H14.0673H14.0673H14.0672H14.0672H14.0671H14.0671H14.067H14.067H14.0669H14.0669H14.0668H14.0668H14.0667H14.0667H14.0666H14.0666H14.0665H14.0665H14.0664H14.0664H14.0663H14.0663H14.0662H14.0662H14.0661H14.0661H14.066H14.066H14.0659H14.0659H14.0658H14.0658H14.0657H14.0657H14.0656H14.0656H14.0655H14.0655H14.0654H14.0654H14.0653H14.0653H14.0652H14.0652H14.0651H14.0651H14.065H14.065H14.0649H14.0649H14.0648H14.0648H14.0647H14.0647H14.0646H14.0646H14.0645H14.0645H14.0644H14.0644H14.0643H14.0643H14.0642H14.0642H14.0641H14.0641H14.064H14.064H14.0639H14.0639H14.0638H14.0638H14.0637H14.0637H14.0636H14.0636H14.0635H14.0635H14.0634H14.0634H14.0633H14.0633H14.0632H14.0632H14.0631H14.0631H14.063H14.063H14.0629H14.0629H14.0628H14.0628H14.0627H14.0627H14.0626H14.0626H14.0625H14.0625H14.0624H14.0624H14.0623H14.0623H14.0622H14.0622H14.0621H14.0621H14.062H14.062H14.0619H14.0619H14.0618H14.0618H14.0617H14.0617H14.0616H14.0616H14.0615H14.0615H14.0614H14.0614H14.0613H14.0613H14.0612H14.0612H14.0611H14.0611H14.061H14.061H14.0609H14.0609H14.0608H14.0608H14.0607H14.0607H14.0606H14.0606H14.0605H14.0605H14.0604H14.0604H14.0603H14.0603H14.0603H14.0602H14.0602H14.0601H14.0601H14.06H14.06H14.0599H14.0599H14.0598H14.0598H14.0597H14.0597H14.0596H14.0596H14.0595H14.0595H14.0594H14.0594H14.0593H14.0593H14.0592H14.0592H14.0591H14.0591H14.059H14.059H14.0589H14.0589H14.0588H14.0588H14.0587H14.0587H14.0586H14.0586H14.0585H14.0585H14.0584H14.0584H14.0583H14.0583H14.0582H14.0582H14.0581H14.0581H14.058H14.058H14.0579H14.0579H14.0578H14.0578H14.0577H14.0577H14.0576H14.0576H14.0575H14.0575H14.0574H14.0574H14.0573H14.0573H14.0572H14.0572H14.0571H14.0571H14.057H14.057H14.0569H14.0569H14.0568H14.0568H14.0567H14.0567H14.0566H14.0566H14.0565H14.0565H14.0564H14.0564H14.0563H14.0563H14.0562H14.0562H14.0561H14.0561H14.056H14.056H14.0559H14.0559H14.0558H14.0558H14.0557H14.0557H14.0556H14.0556H14.0555H14.0555H14.0554H14.0554H14.0553H14.0553H14.0552H14.0552H14.0551H14.0551H14.055H14.055H14.0549H14.0549H14.0548H14.0548H14.0547H14.0547H14.0546H14.0546H14.0545H14.0545H14.0544H14.0544H14.0543H14.0543H14.0542H14.0542H14.0541H14.0541H14.054H14.054H14.0539H14.0539H14.0538H14.0538H14.0537H14.0537H14.0536H14.0536H14.0535H14.0535H14.0534H14.0534H14.0533H14.0533H14.0532H14.0532H14.0531H14.0531H14.053H14.053H14.0529H14.0529H14.0528H14.0528H14.0527H14.0527H14.0526H14.0526H14.0525H14.0525H14.0524H14.0524H14.0523H14.0523H14.0522H14.0522H14.0521H14.0521H14.052H14.052H14.0519H14.0519H14.0518H14.0518H14.0517H14.0517H14.0516H14.0516H14.0515H14.0515H14.0514H14.0514H14.0513H14.0513H14.0512H14.0512H14.0511H14.0511H14.051H14.051H14.0509H14.0509H14.0508H14.0508H14.0507H14.0507H14.0506H14.0506H14.0505H14.0505H14.0504H14.0504H14.0503H14.0503H14.0502H14.0502H14.0501H14.0501H14.05H14.05H14.0499H14.0499H14.0498H14.0498H14.0497H14.0497H14.0496H14.0496H14.0495H14.0495H14.0494H14.0494H14.0493H14.0493H14.0492H14.0492H14.0491H14.0491H14.049H14.049H14.0489H14.0489H14.0488H14.0488H14.0487H14.0487H14.0486H14.0486H14.0485H14.0485H14.0484H14.0484H14.0483H14.0483H14.0483H14.0482H14.0482H14.0481H14.0481H14.048H14.048H14.0479H14.0479H14.0478H14.0478H14.0477H14.0477H14.0476H14.0476H14.0475H14.0475H14.0474H14.0474H14.0473H14.0473H14.0472H14.0472H14.0471H14.0471H14.047H14.047H14.0469H14.0469H14.0468H14.0468H11.6929C10.7801 18.2605 9.98558 18.8956 9.85595 19.7436L9.8554 19.7472C9.71468 20.6187 10.2382 21.4572 11.0774 21.7161C11.7406 21.7367 12.3074 21.7562 12.7116 21.7706C12.9193 21.778 13.0841 21.7841 13.197 21.7884L13.3263 21.7933L13.3597 21.7946L13.3657 21.7948C14.8569 21.8174 16.1025 22.9623 16.1025 24.4335V24.4336V24.4338V24.4339V24.4341V24.4342V24.4344V24.4345V24.4347V24.4348V24.435V24.4351V24.4353V24.4354V24.4356V24.4357V24.4359V24.436V24.4362V24.4363V24.4365V24.4366V24.4368V24.4369V24.4371V24.4372V24.4374V24.4375V24.4377V24.4378V24.438V24.4381V24.4383V24.4384V24.4386V24.4387V24.4389V24.439V24.4391V24.4393V24.4394V24.4396V24.4397V24.4399V24.44V24.4402V24.4403V24.4405V24.4406V24.4408V24.4409V24.4411V24.4412V24.4414V24.4415V24.4417V24.4418V24.442V24.4421V24.4423V24.4424V24.4426V24.4427V24.4429V24.443V24.4432V24.4433V24.4435V24.4436V24.4438V24.4439V24.4441V24.4442V24.4444V24.4445V24.4447V24.4448V24.445V24.4451V24.4453V24.4454V24.4456V24.4457V24.4458V24.446V24.4461V24.4463V24.4464V24.4466V24.4467V24.4469V24.447V24.4472V24.4473V24.4475V24.4476V24.4478V24.4479V24.4481V24.4482V24.4484V24.4485V24.4487V24.4488V24.449V24.4491V24.4493V24.4494V24.4496V24.4497V24.4499V24.45V24.4502V24.4503V24.4505V24.4506V24.4508V24.4509V24.4511V24.4512V24.4514V24.4515V24.4517V24.4518V24.452V24.4521V24.4522V24.4524V24.4525V24.4527V24.4528V24.453V24.4531V24.4533V24.4534V24.4536V24.4537V24.4539V24.454V24.4542V24.4543V24.4545V24.4546V24.4548V24.4549V24.4551V24.4552V24.4554V24.4555V24.4557V24.4558V24.456V24.4561V24.4563V24.4564V24.4566V24.4567V24.4569V24.457V24.4572V24.4573V24.4575V24.4576V24.4578V24.4579V24.4581V24.4582V24.4584V24.4585V24.4587V24.4588V24.4589V24.4591V24.4592V24.4594V24.4595V24.4597V24.4598V24.46V24.4601V24.4603V24.4604V24.4606V24.4607V24.4609V24.461V24.4612V24.4613V24.4615V24.4616V24.4618V24.4619V24.4621V24.4622V24.4624V24.4625V24.4627V24.4628V24.463V24.4631V24.4633V24.4634V24.4636V24.4637V24.4639V24.464V24.4642V24.4643V24.4645V24.4646V24.4648V24.4649V24.4651V24.4652V24.4653V24.4655V24.4656V24.4658V24.4659V24.4661V24.4662V24.4664V24.4665V24.4667V24.4668V24.467V24.4671V24.4673V24.4674V24.4676V24.4677V24.4679V24.468V24.4682V24.4683V24.4685V24.4686V24.4688V24.4689V24.4691V24.4692V24.4694V24.4695V24.4697V24.4698V24.47V24.4701V24.4703V24.4704V24.4706V24.4707V24.4709V24.471V24.4712V24.4713V24.4715V24.4716V24.4718V24.4719V24.472V24.4722V24.4723V24.4725V24.4726V24.4728V24.4729V24.4731V24.4732V24.4734V24.4735V24.4737V24.4738V24.474V24.4741V24.4743V24.4744V24.4746V24.4747V24.4749V24.475V24.4752V24.4753V24.4755V24.4756V24.4758V24.4759V24.4761V24.4762V24.4764V24.4765V24.4767V24.4768V24.477V24.4771V24.4773V24.4774V24.4776V24.4777V24.4779V24.478V24.4782V24.4783V24.4785V24.4786V24.4787V24.4789V24.479V24.4792V24.4793V24.4795V24.4796V24.4798V24.4799V24.4801V24.4802V24.4804V24.4805V24.4807V24.4808V24.481V24.4811V24.4813V24.4814V24.4816V24.4817V24.4819V24.482V24.4822V24.4823V24.4825V24.4826V24.4828V24.4829V24.4831V24.4832V24.4834V24.4835V24.4837V24.4838V24.484V24.4841V24.4843V24.4844V24.4846V24.4847V24.4849V24.485V24.4851V24.4853V24.4854V24.4856V24.4857V24.4859V24.486V24.4862V24.4863V24.4865V24.4866V24.4868V24.4869V24.4871V24.4872V24.4874V24.4875V24.4877V24.4878V24.488V24.4881V24.4883V24.4884V24.4886V24.4887V24.4889V24.489V24.4892V24.4893V24.4895V24.4896V24.4898V24.4899V24.4901V24.4902V24.4904V24.4905V24.4907V24.4908V24.491V24.4911V24.4913V24.4914V24.4916V24.4917V24.4918V24.492V24.4921V24.4923V24.4924V24.4926V24.4927V24.4929V24.493V24.4932V24.4933V24.4935V24.4936V24.4938V24.4939V24.4941V24.4942V24.4944V24.4945V24.4947V24.4948V24.495V24.4951V24.4953V24.4954V24.4956V24.4957V24.4959V24.496V24.4962V24.4963V24.4965V24.4966V24.4968V24.4969V24.4971V24.4972V24.4974V24.4975V24.4977V24.4978V24.498V24.4981V24.4982V24.4984V24.4985V24.4987V24.4988V24.499V24.4991V24.4993V24.4994V24.4996V24.4997V24.4999V24.5V24.5002V24.5003V24.5005V24.5006V24.5008V24.5009V24.5011V24.5012V24.5014V24.5015V24.5017V24.5018V24.502V24.5021V24.5023V24.5024V24.5026V24.5027V24.5029V24.503V24.5032V24.5033V24.5035V24.5036V24.5038V24.5039V24.5041V24.5042V24.5044V24.5045V24.5047V24.5048V24.5049V24.5051V24.5052V24.5054V24.5055V24.5057V24.5058V24.506V24.5061V24.5063V24.5064V24.5066V24.5067V24.5069V24.507V24.5072V24.5073V24.5075V24.5076V24.5078V24.5079V24.5081V24.5082V24.5084V24.5085V24.5087V24.5088V24.509V24.5091V24.5093V24.5094V24.5096V24.5097V24.9424H15.6698L1.69175 4.04816ZM1.69175 4.04816V4.48084M1.69175 4.04816V4.48084M1.69175 4.48084V22.7185H2.12443L1.69175 4.48084ZM3.91321 24.5097L3.91135 24.9424H3.91321V24.5097ZM3.91321 24.5097L3.9133 24.9424M3.91321 24.5097L3.9133 24.9424M3.9133 24.9424H3.91357M3.9133 24.9424H3.91357M3.91357 24.9424H3.91402M3.91357 24.9424H3.91402M3.91402 24.9424H3.91465M3.91402 24.9424H3.91465M3.91465 24.9424H3.91545M3.91465 24.9424H3.91545M3.91545 24.9424H3.91644M3.91545 24.9424H3.91644M3.91644 24.9424H3.9176M3.91644 24.9424H3.9176M3.9176 24.9424H3.91894M3.9176 24.9424H3.91894M3.91894 24.9424H3.92046M3.91894 24.9424H3.92046M3.92046 24.9424H3.92215M3.92046 24.9424H3.92215M3.92215 24.9424H3.92402M3.92215 24.9424H3.92402M3.92402 24.9424H3.92606M3.92402 24.9424H3.92606M3.92606 24.9424H3.92828M3.92606 24.9424H3.92828M3.92828 24.9424H3.93067M3.92828 24.9424H3.93067M3.93067 24.9424H3.93323M3.93067 24.9424H3.93323M3.93323 24.9424H3.93597M3.93323 24.9424H3.93597M3.93597 24.9424H3.93888M3.93597 24.9424H3.93888M3.93888 24.9424H3.94196M3.93888 24.9424H3.94196M3.94196 24.9424H3.94521M3.94196 24.9424H3.94521M3.94521 24.9424H3.94863M3.94521 24.9424H3.94863M3.94863 24.9424H3.95223M3.94863 24.9424H3.95223M3.95223 24.9424H3.95599M3.95223 24.9424H3.95599M3.95599 24.9424H3.95992M3.95599 24.9424H3.95992M3.95992 24.9424H3.96402M3.95992 24.9424H3.96402M3.96402 24.9424H3.96828M3.96402 24.9424H3.96828M3.96828 24.9424H3.97272M3.96828 24.9424H3.97272M3.97272 24.9424H3.97732M3.97272 24.9424H3.97732M3.97732 24.9424H3.98209M3.97732 24.9424H3.98209M3.98209 24.9424H3.98702M3.98209 24.9424H3.98702M3.98702 24.9424H3.99212M3.98702 24.9424H3.99212M3.99212 24.9424H3.99738M3.99212 24.9424H3.99738M3.99738 24.9424H4.00281M3.99738 24.9424H4.00281M4.00281 24.9424H4.0084M4.00281 24.9424H4.0084M4.0084 24.9424H4.01415M4.0084 24.9424H4.01415M4.01415 24.9424H4.02007M4.01415 24.9424H4.02007M4.02007 24.9424H4.02615M4.02007 24.9424H4.02615M4.02615 24.9424H4.03239M4.02615 24.9424H4.03239M4.03239 24.9424H4.03879M4.03239 24.9424H4.03879M4.03879 24.9424H4.04535M4.03879 24.9424H4.04535M4.04535 24.9424H4.05207M4.04535 24.9424H4.05207M4.05207 24.9424H4.05895M4.05207 24.9424H4.05895M4.05895 24.9424H4.06599M4.05895 24.9424H4.06599M4.06599 24.9424H4.07319M4.06599 24.9424H4.07319M4.07319 24.9424H4.08054M4.07319 24.9424H4.08054M4.08054 24.9424H4.08806M4.08054 24.9424H4.08806M4.08806 24.9424H4.09573M4.08806 24.9424H4.09573M4.09573 24.9424H4.10355M4.09573 24.9424H4.10355M4.10355 24.9424H4.11153M4.10355 24.9424H4.11153M4.11153 24.9424H4.11967M4.11153 24.9424H4.11967M4.11967 24.9424H4.12796M4.11967 24.9424H4.12796M4.12796 24.9424H4.1364M4.12796 24.9424H4.1364M4.1364 24.9424H4.145M4.1364 24.9424H4.145M4.145 24.9424H4.15375M4.145 24.9424H4.15375M4.15375 24.9424H4.16266M4.15375 24.9424H4.16266M4.16266 24.9424H4.17171M4.16266 24.9424H4.17171M4.17171 24.9424H4.18092M4.17171 24.9424H4.18092M4.18092 24.9424H4.19028M4.18092 24.9424H4.19028M4.19028 24.9424H4.19979M4.19028 24.9424H4.19979M4.19979 24.9424H4.20944M4.19979 24.9424H4.20944M4.20944 24.9424H4.21925M4.20944 24.9424H4.21925M4.21925 24.9424H4.22921M4.21925 24.9424H4.22921M4.22921 24.9424H4.23931M4.22921 24.9424H4.23931M4.23931 24.9424H4.24956M4.23931 24.9424H4.24956M4.24956 24.9424H4.25996M4.24956 24.9424H4.25996M4.25996 24.9424H4.27051M4.25996 24.9424H4.27051M4.27051 24.9424H4.2812M4.27051 24.9424H4.2812M4.2812 24.9424H4.29204M4.2812 24.9424H4.29204M4.29204 24.9424H4.30302M4.29204 24.9424H4.30302M4.30302 24.9424H4.31414M4.30302 24.9424H4.31414M4.31414 24.9424H4.32541M4.31414 24.9424H4.32541M4.32541 24.9424H4.33683M4.32541 24.9424H4.33683M4.33683 24.9424H4.34838M4.33683 24.9424H4.34838M4.34838 24.9424H4.36008M4.34838 24.9424H4.36008M4.36008 24.9424H4.37192M4.36008 24.9424H4.37192M4.37192 24.9424H4.38391M4.37192 24.9424H4.38391M4.38391 24.9424H4.39603M4.38391 24.9424H4.39603M4.39603 24.9424H4.40829M4.39603 24.9424H4.40829M4.40829 24.9424H4.42069M4.40829 24.9424H4.42069M4.42069 24.9424H4.43323M4.42069 24.9424H4.43323M4.43323 24.9424H4.44591M4.43323 24.9424H4.44591M4.44591 24.9424H4.45873M4.44591 24.9424H4.45873M4.45873 24.9424H4.47169M4.45873 24.9424H4.47169M4.47169 24.9424H4.48478M4.47169 24.9424H4.48478M4.48478 24.9424H4.49801M4.48478 24.9424H4.49801M4.49801 24.9424H4.51137M4.49801 24.9424H4.51137M4.51137 24.9424H4.52487M4.51137 24.9424H4.52487M4.52487 24.9424H4.53851M4.52487 24.9424H4.53851M4.53851 24.9424H4.55228M4.53851 24.9424H4.55228M4.55228 24.9424H4.56618M4.55228 24.9424H4.56618M4.56618 24.9424H4.58022M4.56618 24.9424H4.58022M4.58022 24.9424H4.59439M4.58022 24.9424H4.59439M4.59439 24.9424H4.60869M4.59439 24.9424H4.60869M4.60869 24.9424H4.62312M4.60869 24.9424H4.62312M4.62312 24.9424H4.63768M4.62312 24.9424H4.63768M4.63768 24.9424H4.65238M4.63768 24.9424H4.65238M4.65238 24.9424H4.6672M4.65238 24.9424H4.6672M4.6672 24.9424H4.68216M4.6672 24.9424H4.68216M4.68216 24.9424H4.69724M4.68216 24.9424H4.69724M4.69724 24.9424H4.71245M4.69724 24.9424H4.71245M4.71245 24.9424H4.72779M4.71245 24.9424H4.72779M4.72779 24.9424H4.74326M4.72779 24.9424H4.74326M4.74326 24.9424H4.75885M4.74326 24.9424H4.75885M4.75885 24.9424H4.77457M4.75885 24.9424H4.77457M4.77457 24.9424H4.79041M4.77457 24.9424H4.79041M4.79041 24.9424H4.80639M4.79041 24.9424H4.80639M4.80639 24.9424H4.82248M4.80639 24.9424H4.82248M4.82248 24.9424H4.8387M4.82248 24.9424H4.8387M4.8387 24.9424H4.85504M4.8387 24.9424H4.85504M4.85504 24.9424H4.87151M4.85504 24.9424H4.87151M4.87151 24.9424H4.8881M4.87151 24.9424H4.8881M4.8881 24.9424H4.90481M4.8881 24.9424H4.90481M4.90481 24.9424H4.92164M4.90481 24.9424H4.92164M4.92164 24.9424H4.9386M4.92164 24.9424H4.9386M4.9386 24.9424H4.95567M4.9386 24.9424H4.95567M4.95567 24.9424H4.97286M4.95567 24.9424H4.97286M4.97286 24.9424H4.99018M4.97286 24.9424H4.99018M4.99018 24.9424H5.00761M4.99018 24.9424H5.00761M5.00761 24.9424H5.02516M5.00761 24.9424H5.02516M5.02516 24.9424H5.04283M5.02516 24.9424H5.04283M5.04283 24.9424H5.06061M5.04283 24.9424H5.06061M5.06061 24.9424H5.07852M5.06061 24.9424H5.07852M5.07852 24.9424H5.09653M5.07852 24.9424H5.09653M5.09653 24.9424H5.11467M5.09653 24.9424H5.11467M5.11467 24.9424H5.13292M5.11467 24.9424H5.13292M5.13292 24.9424H5.15128M5.13292 24.9424H5.15128M5.15128 24.9424H5.16976M5.15128 24.9424H5.16976M5.16976 24.9424H5.18835M5.16976 24.9424H5.18835M5.18835 24.9424H5.20705M5.18835 24.9424H5.20705M5.20705 24.9424H5.22587M5.20705 24.9424H5.22587M5.22587 24.9424H5.2448M5.22587 24.9424H5.2448M5.2448 24.9424H5.26384M5.2448 24.9424H5.26384M5.26384 24.9424H5.28299M5.26384 24.9424H5.28299M5.28299 24.9424H5.30225M5.28299 24.9424H5.30225M5.30225 24.9424H5.32162M5.30225 24.9424H5.32162M5.32162 24.9424H5.3411M5.32162 24.9424H5.3411M5.3411 24.9424H5.36069M5.3411 24.9424H5.36069M5.36069 24.9424H5.38039M5.36069 24.9424H5.38039M5.38039 24.9424H5.40019M5.38039 24.9424H5.40019M5.40019 24.9424H5.4201M5.40019 24.9424H5.4201M5.4201 24.9424H5.44012M5.4201 24.9424H5.44012M5.44012 24.9424H5.46025M5.44012 24.9424H5.46025M5.46025 24.9424H5.48048M5.46025 24.9424H5.48048M5.48048 24.9424H5.50081M5.48048 24.9424H5.50081M5.50081 24.9424H5.52125M5.50081 24.9424H5.52125M5.52125 24.9424H5.54179M5.52125 24.9424H5.54179M5.54179 24.9424H5.56244M5.54179 24.9424H5.56244M5.56244 24.9424H5.58319M5.56244 24.9424H5.58319M5.58319 24.9424H5.60404M5.58319 24.9424H5.60404M5.60404 24.9424H5.62499M5.60404 24.9424H5.62499M5.62499 24.9424H5.64605M5.62499 24.9424H5.64605M5.64605 24.9424H5.6672M5.64605 24.9424H5.6672M5.6672 24.9424H5.68846M5.6672 24.9424H5.68846M5.68846 24.9424H5.70982M5.68846 24.9424H5.70982M5.70982 24.9424H5.73127M5.70982 24.9424H5.73127M5.73127 24.9424H5.75282M5.73127 24.9424H5.75282M5.75282 24.9424H5.77447M5.75282 24.9424H5.77447M5.77447 24.9424H5.79622M5.77447 24.9424H5.79622M5.79622 24.9424H5.81807M5.79622 24.9424H5.81807M5.81807 24.9424H5.84001M5.81807 24.9424H5.84001M5.84001 24.9424H5.86205M5.84001 24.9424H5.86205M5.86205 24.9424H5.88418M5.86205 24.9424H5.88418M5.88418 24.9424H5.90641M5.88418 24.9424H5.90641M5.90641 24.9424H5.92873M5.90641 24.9424H5.92873M5.92873 24.9424H5.95115M5.92873 24.9424H5.95115M5.95115 24.9424H5.97366M5.95115 24.9424H5.97366M5.97366 24.9424H5.99626M5.97366 24.9424H5.99626M5.99626 24.9424H6.01895M5.99626 24.9424H6.01895M6.01895 24.9424H6.04174M6.01895 24.9424H6.04174M6.04174 24.9424H6.06462M6.04174 24.9424H6.06462M6.06462 24.9424H6.08759M6.06462 24.9424H6.08759M6.08759 24.9424H6.11064M6.08759 24.9424H6.11064M6.11064 24.9424H6.13379M6.11064 24.9424H6.13379M6.13379 24.9424H6.15703M6.13379 24.9424H6.15703M6.15703 24.9424H6.18035M6.15703 24.9424H6.18035M6.18035 24.9424H6.20376M6.18035 24.9424H6.20376M6.20376 24.9424H6.22726M6.20376 24.9424H6.22726M6.22726 24.9424H6.25085M6.22726 24.9424H6.25085M6.25085 24.9424H6.27452M6.25085 24.9424H6.27452M6.27452 24.9424H6.29828M6.27452 24.9424H6.29828M6.29828 24.9424H6.32213M6.29828 24.9424H6.32213M6.32213 24.9424H6.34606M6.32213 24.9424H6.34606M6.34606 24.9424H6.37007M6.34606 24.9424H6.37007M6.37007 24.9424H6.39417M6.37007 24.9424H6.39417M6.39417 24.9424H6.41835M6.39417 24.9424H6.41835M6.41835 24.9424H6.44261M6.41835 24.9424H6.44261M6.44261 24.9424H6.46695M6.44261 24.9424H6.46695M6.46695 24.9424H6.49138M6.46695 24.9424H6.49138M6.49138 24.9424H6.51589M6.49138 24.9424H6.51589M6.51589 24.9424H6.54047M6.51589 24.9424H6.54047M6.54047 24.9424H6.56514M6.54047 24.9424H6.56514M6.56514 24.9424H6.58989M6.56514 24.9424H6.58989M6.58989 24.9424H6.61471M6.58989 24.9424H6.61471M6.61471 24.9424H6.63962M6.61471 24.9424H6.63962M6.63962 24.9424H6.6646M6.63962 24.9424H6.6646M6.6646 24.9424H6.68966M6.6646 24.9424H6.68966M6.68966 24.9424H6.7148M6.68966 24.9424H6.7148M6.7148 24.9424H6.74001M6.7148 24.9424H6.74001M6.74001 24.9424H6.7653M6.74001 24.9424H6.7653M6.7653 24.9424H6.79066M6.7653 24.9424H6.79066M6.79066 24.9424H6.8161M6.79066 24.9424H6.8161M6.8161 24.9424H6.84161M6.8161 24.9424H6.84161M6.84161 24.9424H6.86719M6.84161 24.9424H6.86719M6.86719 24.9424H6.89285M6.86719 24.9424H6.89285M6.89285 24.9424H6.91858M6.89285 24.9424H6.91858M6.91858 24.9424H6.94438M6.91858 24.9424H6.94438M6.94438 24.9424H6.97026M6.94438 24.9424H6.97026M6.97026 24.9424H6.9962M6.97026 24.9424H6.9962M6.9962 24.9424H7.02222M6.9962 24.9424H7.02222M7.02222 24.9424H7.0483M7.02222 24.9424H7.0483M7.0483 24.9424H7.07445M7.0483 24.9424H7.07445M7.07445 24.9424H7.10068M7.07445 24.9424H7.10068M7.10068 24.9424H7.12697M7.10068 24.9424H7.12697M7.12697 24.9424H7.15333M7.12697 24.9424H7.15333M7.15333 24.9424H7.17975M7.15333 24.9424H7.17975M7.17975 24.9424H7.20624M7.17975 24.9424H7.20624M7.20624 24.9424H7.2328M7.20624 24.9424H7.2328M7.2328 24.9424H7.25943M7.2328 24.9424H7.25943M7.25943 24.9424H7.28612M7.25943 24.9424H7.28612M7.28612 24.9424H7.31287M7.28612 24.9424H7.31287M7.31287 24.9424H7.33969M7.31287 24.9424H7.33969M7.33969 24.9424H7.36657M7.33969 24.9424H7.36657M7.36657 24.9424H7.39351M7.36657 24.9424H7.39351M7.39351 24.9424H7.42052M7.39351 24.9424H7.42052M7.42052 24.9424H7.44758M7.42052 24.9424H7.44758M7.44758 24.9424H7.47471M7.44758 24.9424H7.47471M7.47471 24.9424H7.5019M7.47471 24.9424H7.5019M7.5019 24.9424H7.52915M7.5019 24.9424H7.52915M7.52915 24.9424H7.55646M7.52915 24.9424H7.55646M7.55646 24.9424H7.58383M7.55646 24.9424H7.58383M7.58383 24.9424H7.61126M7.58383 24.9424H7.61126M7.61126 24.9424H7.63874M7.61126 24.9424H7.63874M7.63874 24.9424H7.66628M7.63874 24.9424H7.66628M7.66628 24.9424H7.69388M7.66628 24.9424H7.69388M7.69388 24.9424H7.72154M7.69388 24.9424H7.72154M7.72154 24.9424H7.74925M7.72154 24.9424H7.74925M7.74925 24.9424H7.77702M7.74925 24.9424H7.77702M7.77702 24.9424H7.80484M7.77702 24.9424H7.80484M7.80484 24.9424H7.83272M7.80484 24.9424H7.83272M7.83272 24.9424H7.86065M7.83272 24.9424H7.86065M7.86065 24.9424H7.88863M7.86065 24.9424H7.88863M7.88863 24.9424H7.91667M7.88863 24.9424H7.91667M7.91667 24.9424H7.94476M7.91667 24.9424H7.94476M7.94476 24.9424H7.9729M7.94476 24.9424H7.9729M7.9729 24.9424H8.00109M7.9729 24.9424H8.00109M8.00109 24.9424H8.02933M8.00109 24.9424H8.02933M8.02933 24.9424H8.05762M8.02933 24.9424H8.05762M8.05762 24.9424H8.08597M8.05762 24.9424H8.08597M8.08597 24.9424H8.11436M8.08597 24.9424H8.11436M8.11436 24.9424H8.1428M8.11436 24.9424H8.1428M8.1428 24.9424H8.17128M8.1428 24.9424H8.17128M8.17128 24.9424H8.19982M8.17128 24.9424H8.19982M8.19982 24.9424H8.2284M8.19982 24.9424H8.2284M8.2284 24.9424H8.25703M8.2284 24.9424H8.25703M8.25703 24.9424H8.2857M8.25703 24.9424H8.2857M8.2857 24.9424H8.31442M8.2857 24.9424H8.31442M8.31442 24.9424H8.34318M8.31442 24.9424H8.34318M8.34318 24.9424H8.37199H8.34318ZM24.3016 14.0867L24.3021 14.0873C25.4816 15.4227 26.1312 17.1417 26.1312 18.9118C26.1312 23.0137 22.7491 26.2862 18.6116 26.1901L18.6116 26.19H18.6015H18.5633C18.508 26.19 18.4344 26.1911 18.3769 26.1922L18.303 26.1937L18.2809 26.1942L18.2778 26.1942H2.13293C1.19357 26.1942 0.432685 25.4338 0.432685 24.5012V2.27471V2.21542V2.14344C0.432685 1.21056 1.19353 0.451294 2.13137 0.454669V0.454672H2.13293H2.20516H3.14828H3.14841L10.8255 0.458905L10.8259 0.458906L19.217 0.471609H19.2176H19.2208C23.0768 0.722156 26.1239 3.99115 26.0718 7.88378C26.0477 9.60328 25.4218 11.2577 24.2954 12.5561L24.2949 12.5566C23.9162 12.9947 23.9159 13.6483 24.3016 14.0867Z" stroke="white" stroke-width="0.86537"/>
<path d="M4.90741 18.1627H5.67221C6.65405 18.1627 7.44893 18.957 7.44893 19.9319C7.44893 20.9068 6.65405 21.7011 5.67221 21.7011H4.90741C3.92556 21.7011 3.13068 20.9068 3.13068 19.9319C3.13068 18.957 3.92556 18.1627 4.90741 18.1627Z" stroke="white" stroke-width="0.86537"/>
</svg>
