<svg width="22" height="26" viewBox="0 0 22 26" fill="none" xmlns="http://www.w3.org/2000/svg">
<path d="M10.0298 24.181L10.3583 23.804L10.3583 23.804L10.0298 24.181ZM11.9291 24.1305L11.5833 23.7694L11.5833 23.7694L11.9291 24.1305ZM0.5 11C0.5 12.3183 0.941674 13.6904 1.61116 15.0202C2.28254 16.3538 3.1984 17.675 4.18358 18.8997C6.15366 21.3488 8.43596 23.4551 9.70129 24.5579L10.3583 23.804C9.11239 22.7181 6.87978 20.656 4.96277 18.2729C4.00441 17.0815 3.13369 15.8206 2.50436 14.5706C1.87314 13.3168 1.5 12.1039 1.5 11H0.5ZM11 0.5C7.88638 0.5 5.25284 1.54006 3.39645 3.39645C1.54006 5.25284 0.5 7.88638 0.5 11H1.5C1.5 8.11362 2.45994 5.74716 4.10355 4.10355C5.74716 2.45994 8.11362 1.5 11 1.5V0.5ZM21.5 11C21.5 5.75691 17.3081 0.5 11 0.5V1.5C16.6919 1.5 20.5 6.24309 20.5 11H21.5ZM12.275 24.4915C13.5219 23.297 15.8086 21.0109 17.7871 18.5063C18.7761 17.2543 19.6971 15.9365 20.373 14.6645C21.0437 13.4024 21.5 12.1362 21.5 11H20.5C20.5 11.8934 20.1325 12.9862 19.49 14.1953C18.8527 15.3946 17.971 16.6602 17.0024 17.8864C15.0656 20.3382 12.8168 22.5877 11.5833 23.7694L12.275 24.4915ZM9.70129 24.5579C10.4528 25.2129 11.5607 25.1758 12.275 24.4915L11.5833 23.7694C11.237 24.1011 10.714 24.114 10.3583 23.804L9.70129 24.5579ZM10.9999 13.5C13.117 13.5 14.8333 11.7838 14.8333 9.6667H13.8333C13.8333 11.2315 12.5647 12.5 10.9999 12.5V13.5ZM7.16659 9.6667C7.16659 11.7838 8.88283 13.5 10.9999 13.5V12.5C9.43512 12.5 8.16659 11.2315 8.16659 9.6667H7.16659ZM10.9999 5.83336C8.88283 5.83336 7.16659 7.5496 7.16659 9.6667H8.16659C8.16659 8.10189 9.43512 6.83336 10.9999 6.83336V5.83336ZM14.8333 9.6667C14.8333 7.5496 13.117 5.83336 10.9999 5.83336V6.83336C12.5647 6.83336 13.8333 8.10189 13.8333 9.6667H14.8333Z" fill="white"/>
</svg>
