<svg width="21" height="21" viewBox="0 0 21 21" fill="none" xmlns="http://www.w3.org/2000/svg">
<path fill-rule="evenodd" clip-rule="evenodd" d="M10.5811 13.4379L13.3362 10.6829C14.0971 9.92197 14.2857 8.75954 13.8045 7.79707L13.6484 7.48486C13.1671 6.52239 13.3558 5.35996 14.1167 4.59906L17.5327 1.18306C17.7767 0.938981 18.1725 0.938981 18.4165 1.18306C18.464 1.23056 18.5036 1.28541 18.5336 1.34549L19.9136 4.10543C20.9693 6.21682 20.5555 8.76685 18.8863 10.436L11.3877 17.9346C9.57081 19.7515 6.88329 20.3859 4.44563 19.5734L1.42753 18.5674C1.10006 18.4582 0.923088 18.1043 1.03224 17.7768C1.06293 17.6847 1.11462 17.6011 1.18323 17.5325L4.49732 14.2184C5.25822 13.4575 6.42065 13.2689 7.38312 13.7501L7.69532 13.9062C8.65779 14.3874 9.82022 14.1988 10.5811 13.4379V13.4379Z" stroke="white"/>
</svg>
