<svg width="22" height="20" viewBox="0 0 22 20" fill="none" xmlns="http://www.w3.org/2000/svg">
<path d="M8.89854 17.4895L8.91516 17.4765L11.487 15.3723L11.5239 15.3389C11.5381 15.3246 11.5625 15.3099 11.6087 15.3099C11.6572 15.3099 11.7288 15.3277 11.8055 15.3853L11.8055 15.3853L11.8111 15.3894L16.4068 18.7388C16.9865 19.1701 17.893 18.9035 18.0506 18.1255C18.0508 18.1246 18.051 18.1237 18.0512 18.1228L21.4793 1.76119L21.4794 1.7612L21.4803 1.75671C21.5576 1.36989 21.4015 1.00501 21.1548 0.775951C20.9025 0.541587 20.5088 0.410031 20.1059 0.569732L1.17968 7.891C0.713713 8.05283 0.5 8.48322 0.5 8.86751C0.5 9.25271 0.71472 9.68423 1.18297 9.84517L5.54417 11.4714L7.25731 16.9833C7.34712 17.3734 7.64111 17.6163 7.9677 17.6931C8.28429 17.7676 8.62985 17.691 8.89854 17.4895ZM7.69317 10.6956L7.76849 10.6578L13.8027 6.96448L8.95809 11.5031L8.94638 11.5144C8.69352 11.7673 8.34602 12.1905 8.33272 12.7689L8.26893 13.2793L7.6781 11.1129L7.62446 10.9872C7.58025 10.9135 7.57983 10.8475 7.59458 10.8008C7.60945 10.7537 7.64216 10.716 7.69317 10.6956Z" stroke="white" stroke-linejoin="bevel"/>
</svg>
