<svg width="46" height="46" viewBox="0 0 46 46" fill="none" xmlns="http://www.w3.org/2000/svg">
<path d="M7.56485 29.7891L8.04274 29.9362L8.0988 29.754L8.01935 29.5807L7.56485 29.7891ZM4 41.3749L3.52211 41.2279L3.24436 42.1306L4.14704 41.8528L4 41.3749ZM15.0244 37.9828L15.2746 37.5499L15.0858 37.4408L14.8773 37.5049L15.0244 37.9828ZM41.8332 22.2083C41.8332 31.9884 33.905 39.9167 24.1249 39.9167V40.9167C34.4572 40.9167 42.8332 32.5407 42.8332 22.2083H41.8332ZM24.1249 4.5C33.905 4.5 41.8332 12.4283 41.8332 22.2083H42.8332C42.8332 11.876 34.4572 3.5 24.1249 3.5V4.5ZM6.41658 22.2083C6.41658 12.4283 14.3449 4.5 24.1249 4.5V3.5C13.7926 3.5 5.41658 11.876 5.41658 22.2083H6.41658ZM8.01935 29.5807C6.99043 27.3368 6.41658 24.8402 6.41658 22.2083H5.41658C5.41658 24.987 6.02268 27.6254 7.11035 29.9975L8.01935 29.5807ZM4.47789 41.522L8.04274 29.9362L7.08696 29.6421L3.52211 41.2279L4.47789 41.522ZM14.8773 37.5049L3.85296 40.897L4.14704 41.8528L15.1714 38.4607L14.8773 37.5049ZM24.1249 39.9167C20.9001 39.9167 17.878 39.0551 15.2746 37.5499L14.7741 38.4157C17.5255 40.0064 20.7197 40.9167 24.1249 40.9167V39.9167ZM14.5416 25.5833C16.4055 25.5833 17.9166 24.0723 17.9166 22.2083H16.9166C16.9166 23.52 15.8533 24.5833 14.5416 24.5833V25.5833ZM11.1666 22.2083C11.1666 24.0723 12.6776 25.5833 14.5416 25.5833V24.5833C13.2299 24.5833 12.1666 23.52 12.1666 22.2083H11.1666ZM14.5416 18.8333C12.6776 18.8333 11.1666 20.3444 11.1666 22.2083H12.1666C12.1666 20.8967 13.2299 19.8333 14.5416 19.8333V18.8333ZM17.9166 22.2083C17.9166 20.3444 16.4055 18.8333 14.5416 18.8333V19.8333C15.8533 19.8333 16.9166 20.8967 16.9166 22.2083H17.9166ZM26.4999 22.2083C26.4999 23.52 25.4366 24.5833 24.1249 24.5833V25.5833C25.9889 25.5833 27.4999 24.0723 27.4999 22.2083H26.4999ZM24.1249 19.8333C25.4366 19.8333 26.4999 20.8967 26.4999 22.2083H27.4999C27.4999 20.3444 25.9889 18.8333 24.1249 18.8333V19.8333ZM21.7499 22.2083C21.7499 20.8967 22.8132 19.8333 24.1249 19.8333V18.8333C22.261 18.8333 20.7499 20.3444 20.7499 22.2083H21.7499ZM24.1249 24.5833C22.8132 24.5833 21.7499 23.52 21.7499 22.2083H20.7499C20.7499 24.0723 22.261 25.5833 24.1249 25.5833V24.5833ZM33.7082 25.5833C35.5722 25.5833 37.0832 24.0723 37.0832 22.2083H36.0832C36.0832 23.52 35.0199 24.5833 33.7082 24.5833V25.5833ZM30.3332 22.2083C30.3332 24.0723 31.8443 25.5833 33.7082 25.5833V24.5833C32.3966 24.5833 31.3332 23.52 31.3332 22.2083H30.3332ZM33.7082 18.8333C31.8443 18.8333 30.3332 20.3444 30.3332 22.2083H31.3332C31.3332 20.8967 32.3966 19.8333 33.7082 19.8333V18.8333ZM37.0832 22.2083C37.0832 20.3444 35.5722 18.8333 33.7082 18.8333V19.8333C35.0199 19.8333 36.0832 20.8967 36.0832 22.2083H37.0832Z" fill="white"/>
</svg>
